<mxfile host="app.diagrams.net" agent="Mozilla/5.0 (Macintosh; Intel Mac OS X 10_15_7) AppleWebKit/605.1.15 (KHTML, like Gecko) Version/17.6 Safari/605.1.15" version="25.0.3">
  <diagram name="Page-1" id="oB8MHlwppOr-tE6rPpJF">
    <mxGraphModel grid="1" page="1" gridSize="10" guides="1" tooltips="1" connect="1" arrows="1" fold="1" pageScale="1" pageWidth="1169" pageHeight="1654" math="0" shadow="0">
      <root>
        <mxCell id="0" />
        <mxCell id="1" parent="0" />
        <mxCell id="eXQPlTZvWFYznu4N8apm-16" style="edgeStyle=orthogonalEdgeStyle;rounded=0;orthogonalLoop=1;jettySize=auto;html=1;exitX=0.25;exitY=1;exitDx=0;exitDy=0;entryX=0.25;entryY=0;entryDx=0;entryDy=0;" edge="1" parent="1" source="eXQPlTZvWFYznu4N8apm-12" target="eXQPlTZvWFYznu4N8apm-13">
          <mxGeometry relative="1" as="geometry" />
        </mxCell>
        <mxCell id="eXQPlTZvWFYznu4N8apm-17" value="message&lt;div&gt;Outgoing&lt;/div&gt;" style="edgeLabel;html=1;align=center;verticalAlign=middle;resizable=0;points=[];" connectable="0" vertex="1" parent="eXQPlTZvWFYznu4N8apm-16">
          <mxGeometry x="-0.1778" y="1" relative="1" as="geometry">
            <mxPoint as="offset" />
          </mxGeometry>
        </mxCell>
        <mxCell id="mv5gYA5048FR4Zf3MTZN-10" style="edgeStyle=orthogonalEdgeStyle;rounded=0;orthogonalLoop=1;jettySize=auto;html=1;exitX=0.75;exitY=0;exitDx=0;exitDy=0;entryX=0.75;entryY=1;entryDx=0;entryDy=0;" edge="1" parent="1" source="eXQPlTZvWFYznu4N8apm-12" target="eXQPlTZvWFYznu4N8apm-26">
          <mxGeometry relative="1" as="geometry" />
        </mxCell>
        <mxCell id="mv5gYA5048FR4Zf3MTZN-11" value="mesage&lt;div&gt;Ingoing&lt;/div&gt;" style="edgeLabel;html=1;align=center;verticalAlign=middle;resizable=0;points=[];" connectable="0" vertex="1" parent="mv5gYA5048FR4Zf3MTZN-10">
          <mxGeometry x="0.2222" relative="1" as="geometry">
            <mxPoint x="1" y="5" as="offset" />
          </mxGeometry>
        </mxCell>
        <mxCell id="eXQPlTZvWFYznu4N8apm-12" value="Micro" style="html=1;whiteSpace=wrap;" vertex="1" parent="1">
          <mxGeometry x="530" y="320" width="110" height="50" as="geometry" />
        </mxCell>
        <mxCell id="eXQPlTZvWFYznu4N8apm-20" style="edgeStyle=orthogonalEdgeStyle;rounded=0;orthogonalLoop=1;jettySize=auto;html=1;exitX=0.75;exitY=0;exitDx=0;exitDy=0;entryX=0.75;entryY=1;entryDx=0;entryDy=0;" edge="1" parent="1" source="eXQPlTZvWFYznu4N8apm-13" target="eXQPlTZvWFYznu4N8apm-12">
          <mxGeometry relative="1" as="geometry" />
        </mxCell>
        <mxCell id="eXQPlTZvWFYznu4N8apm-21" value="mesasge&lt;div&gt;Ingoing&lt;/div&gt;" style="edgeLabel;html=1;align=center;verticalAlign=middle;resizable=0;points=[];" connectable="0" vertex="1" parent="eXQPlTZvWFYznu4N8apm-20">
          <mxGeometry x="0.0889" y="-2" relative="1" as="geometry">
            <mxPoint x="1" as="offset" />
          </mxGeometry>
        </mxCell>
        <mxCell id="eXQPlTZvWFYznu4N8apm-13" value="Bus" style="html=1;whiteSpace=wrap;" vertex="1" parent="1">
          <mxGeometry x="530" y="460" width="110" height="50" as="geometry" />
        </mxCell>
        <mxCell id="eXQPlTZvWFYznu4N8apm-22" value="Persistence" style="html=1;whiteSpace=wrap;" vertex="1" parent="1">
          <mxGeometry x="300" y="180" width="110" height="50" as="geometry" />
        </mxCell>
        <mxCell id="mv5gYA5048FR4Zf3MTZN-1" style="edgeStyle=orthogonalEdgeStyle;rounded=0;orthogonalLoop=1;jettySize=auto;html=1;entryX=1;entryY=0.5;entryDx=0;entryDy=0;" edge="1" parent="1" source="eXQPlTZvWFYznu4N8apm-26" target="eXQPlTZvWFYznu4N8apm-22">
          <mxGeometry relative="1" as="geometry" />
        </mxCell>
        <mxCell id="mv5gYA5048FR4Zf3MTZN-2" value="entities" style="edgeLabel;html=1;align=center;verticalAlign=middle;resizable=0;points=[];" connectable="0" vertex="1" parent="mv5gYA5048FR4Zf3MTZN-1">
          <mxGeometry x="0.3167" y="-2" relative="1" as="geometry">
            <mxPoint x="19" y="17" as="offset" />
          </mxGeometry>
        </mxCell>
        <mxCell id="mv5gYA5048FR4Zf3MTZN-8" style="edgeStyle=orthogonalEdgeStyle;rounded=0;orthogonalLoop=1;jettySize=auto;html=1;exitX=0.25;exitY=1;exitDx=0;exitDy=0;entryX=0.25;entryY=0;entryDx=0;entryDy=0;" edge="1" parent="1" source="eXQPlTZvWFYznu4N8apm-26" target="eXQPlTZvWFYznu4N8apm-12">
          <mxGeometry relative="1" as="geometry" />
        </mxCell>
        <mxCell id="mv5gYA5048FR4Zf3MTZN-9" value="message&lt;div&gt;Outgoing&lt;/div&gt;" style="edgeLabel;html=1;align=center;verticalAlign=middle;resizable=0;points=[];" connectable="0" vertex="1" parent="mv5gYA5048FR4Zf3MTZN-8">
          <mxGeometry x="0.1778" relative="1" as="geometry">
            <mxPoint y="-13" as="offset" />
          </mxGeometry>
        </mxCell>
        <mxCell id="eXQPlTZvWFYznu4N8apm-26" value="Business" style="html=1;whiteSpace=wrap;" vertex="1" parent="1">
          <mxGeometry x="530" y="180" width="110" height="50" as="geometry" />
        </mxCell>
      </root>
    </mxGraphModel>
  </diagram>
</mxfile>
